# xmcd
#
# Track frame offsets:
#	150
#	14662
#	33798
#	52782
#	66824
#	88318
#	102359
#	118122
#	140873
#	155676
#	179649
#	193846
#	206736
#	220863
#	230909
#	245640
#	262044
#	273696
#	284933
#	302240
#
# Disc length: 4193 seconds
#
# Revision: 0
# Processed by: cddbd v1.4PL0 Copyright (c) Steve Scherf et al.
# Submitted via: EasyCDDAExtractor 4.6.0.1
#
DISCID=4f105f14
DTITLE=Cher - Stars/Cherished
DYEAR=1976
DGENRE=pop
TTITLE0=love enough
TTITLE1=bell bottom blues
TTITLE2=these days
TTITLE3=mr soul
TTITLE4=just this one time
TTITLE5=geronimo's cadillac
TTITLE6=the bigger they come, the harder they fall
TTITLE7=love hurts
TTITLE8=rock'n'roll doctor
TTITLE9=stars
TTITLE10=pirate
TTITLE11=he was beautiful
TTITLE12=war paint and soft feathers
TTITLE13=love the devil out of ya
TTITLE14=she loves to hear the music
TTITLE15=L.A. plane
TTITLE16=again
TTITLE17=dixie
TTITLE18=send the man over
TTITLE19=thunderstorm
EXTD=
EXTT0=
EXTT1=
EXTT2=
EXTT3=
EXTT4=
EXTT5=
EXTT6=
EXTT7=
EXTT8=
EXTT9=
EXTT10=
EXTT11=
EXTT12=
EXTT13=
EXTT14=
EXTT15=
EXTT16=
EXTT17=
EXTT18=
EXTT19=
PLAYORDER=
